<svg width="1024" height="277" viewBox="0 0 1024 277" fill="none" xmlns="http://www.w3.org/2000/svg">
<g clip-path="url(#clip0)">
<path d="M333.982 44.1108V0H460.012V44.1108H415.901V242.609H378.092V44.1108H333.982Z" fill="#FF0000"/>
<path d="M0 267.815V3.15077H31.5077L97.6738 151.237V3.15077H135.483V258.363H97.6738L37.8092 113.428V267.815H0Z" fill="#FF0000"/>
<path d="M182.745 252.062V3.15077H296.172V44.1108H220.554V103.975H277.268V138.634H220.554V211.102H264.665H296.172V252.062H182.745Z" fill="#FF0000"/>
<path d="M494.671 239.458V3.15077H611.249V40.96H532.48V94.5231H592.345V135.483H532.48V239.458H494.671Z" fill="#FF0000"/>
<path d="M642.757 242.609V0H683.717V201.649L753.034 211.102V242.609H642.757Z" fill="#FF0000"/>
<path d="M797.145 248.911V0H834.954V248.911H797.145Z" fill="#FF0000"/>
<path d="M926.326 126.031L875.914 3.15077H913.723L948.382 72.4677L983.04 3.15077H1024L970.437 135.483L1024 277.268L983.04 267.815L948.382 189.046L913.723 261.514L872.763 252.062L926.326 126.031Z" fill="#FF0000"/>
</g>
<defs>
<clipPath id="clip0">
<rect width="1024" height="277" fill="white"/>
</clipPath>
</defs>
</svg>
